<svg width="28" height="28" viewBox="0 0 28 28" fill="none" xmlns="http://www.w3.org/2000/svg">
<path d="M24.3136 5.37792C23.7177 4.78175 23.0102 4.30884 22.2315 3.98618C21.4528 3.66353 20.6182 3.49745 19.7753 3.49745C18.9324 3.49745 18.0977 3.66353 17.319 3.98618C16.5403 4.30884 15.8328 4.78175 15.2369 5.37792L14.0003 6.61458L12.7636 5.37792C11.56 4.17428 9.92747 3.49808 8.22527 3.49808C6.52306 3.49808 4.89058 4.17428 3.68694 5.37792C2.4833 6.58156 1.8071 8.21404 1.8071 9.91625C1.8071 11.6185 2.4833 13.2509 3.68694 14.4546L4.9236 15.6912L14.0003 24.7679L23.0769 15.6912L24.3136 14.4546C24.9098 13.8587 25.3827 13.1512 25.7053 12.3725C26.028 11.5938 26.1941 10.7591 26.1941 9.91625C26.1941 9.07334 26.028 8.2387 25.7053 7.46C25.3827 6.6813 24.9098 5.9738 24.3136 5.37792Z" stroke="black" stroke-width="2.29333" stroke-linecap="round" stroke-linejoin="round"/>
</svg>

