<svg width="27" height="28" viewBox="0 0 27 28" fill="none" xmlns="http://www.w3.org/2000/svg">
<g clip-path="url(#clip0_75_663)">
<path d="M13.4618 17.4998C15.3204 17.4998 16.8272 15.9328 16.8272 13.9998C16.8272 12.0668 15.3204 10.4998 13.4618 10.4998C11.6031 10.4998 10.0964 12.0668 10.0964 13.9998C10.0964 15.9328 11.6031 17.4998 13.4618 17.4998Z" stroke="black" stroke-width="2.29333" stroke-linecap="round" stroke-linejoin="round"/>
<path d="M21.7628 17.4998C21.6135 17.8517 21.5689 18.242 21.6349 18.6205C21.7009 18.9989 21.8744 19.3482 22.133 19.6231L22.2003 19.6931C22.4089 19.9098 22.5744 20.1672 22.6873 20.4504C22.8002 20.7337 22.8583 21.0373 22.8583 21.344C22.8583 21.6506 22.8002 21.9542 22.6873 22.2375C22.5744 22.5208 22.4089 22.7781 22.2003 22.9948C21.9919 23.2117 21.7445 23.3838 21.4721 23.5013C21.1997 23.6187 20.9078 23.6791 20.6129 23.6791C20.3181 23.6791 20.0261 23.6187 19.7538 23.5013C19.4814 23.3838 19.234 23.2117 19.0256 22.9948L18.9583 22.9248C18.6939 22.6558 18.3581 22.4754 17.9942 22.4068C17.6303 22.3382 17.255 22.3845 16.9166 22.5398C16.5848 22.6877 16.3019 22.9333 16.1026 23.2463C15.9032 23.5593 15.7963 23.926 15.7948 24.3015V24.4998C15.7948 25.1186 15.5585 25.7121 15.1377 26.1497C14.7169 26.5873 14.1463 26.8331 13.5512 26.8331C12.9562 26.8331 12.3855 26.5873 11.9648 26.1497C11.544 25.7121 11.3077 25.1186 11.3077 24.4998V24.3948C11.299 24.0086 11.1788 23.6341 10.9627 23.3199C10.7467 23.0058 10.4447 22.7665 10.0961 22.6331C9.75777 22.4778 9.38244 22.4315 9.01854 22.5001C8.65463 22.5687 8.31884 22.7492 8.05446 23.0181L7.98715 23.0881C7.77878 23.3051 7.53134 23.4772 7.25897 23.5946C6.9866 23.712 6.69465 23.7725 6.39981 23.7725C6.10497 23.7725 5.81302 23.712 5.54065 23.5946C5.26828 23.4772 5.02084 23.3051 4.81247 23.0881C4.60387 22.8714 4.43839 22.6141 4.32548 22.3308C4.21257 22.0476 4.15446 21.7439 4.15446 21.4373C4.15446 21.1307 4.21257 20.827 4.32548 20.5438C4.43839 20.2605 4.60387 20.0032 4.81247 19.7865L4.87978 19.7165C5.13839 19.4415 5.31188 19.0923 5.37786 18.7138C5.44384 18.3354 5.3993 17.945 5.24997 17.5931C5.10777 17.2481 4.87165 16.9538 4.57069 16.7465C4.26972 16.5392 3.91704 16.428 3.55606 16.4265H3.36536C2.77032 16.4265 2.19965 16.1806 1.7789 15.7431C1.35815 15.3055 1.12177 14.712 1.12177 14.0931C1.12177 13.4743 1.35815 12.8808 1.7789 12.4432C2.19965 12.0056 2.77032 11.7598 3.36536 11.7598H3.46632C3.83763 11.7508 4.19773 11.6258 4.49983 11.4011C4.80192 11.1764 5.03202 10.8623 5.16023 10.4998C5.30955 10.1479 5.3541 9.75758 5.28812 9.37912C5.22213 9.00066 5.04865 8.65143 4.79004 8.37647L4.72273 8.30648C4.51413 8.08977 4.34864 7.83243 4.23573 7.54917C4.12283 7.26591 4.06471 6.96228 4.06471 6.65564C4.06471 6.34901 4.12283 6.04538 4.23573 5.76212C4.34864 5.47885 4.51413 5.22151 4.72273 5.00481C4.9311 4.78787 5.17854 4.61576 5.45091 4.49834C5.72327 4.38092 6.01522 4.32048 6.31007 4.32048C6.60491 4.32048 6.89686 4.38092 7.16923 4.49834C7.44159 4.61576 7.68904 4.78787 7.8974 5.00481L7.96471 5.07481C8.2291 5.34377 8.56489 5.52419 8.92879 5.59282C9.2927 5.66144 9.66803 5.61511 10.0064 5.45981H10.0961C10.4279 5.31192 10.7109 5.06636 10.9102 4.75335C11.1095 4.44035 11.2165 4.07356 11.2179 3.69815V3.49981C11.2179 2.88097 11.4543 2.28748 11.875 1.8499C12.2958 1.41231 12.8665 1.16648 13.4615 1.16648C14.0565 1.16648 14.6272 1.41231 15.048 1.8499C15.4687 2.28748 15.7051 2.88097 15.7051 3.49981V3.60481C15.7065 3.98023 15.8135 4.34702 16.0128 4.66002C16.2121 4.97303 16.4951 5.21859 16.8269 5.36648C17.1652 5.52178 17.5406 5.5681 17.9045 5.49948C18.2684 5.43086 18.6042 5.25044 18.8686 4.98148L18.9359 4.91148C19.1442 4.69453 19.3917 4.52243 19.664 4.40501C19.9364 4.28758 20.2284 4.22714 20.5232 4.22714C20.818 4.22714 21.11 4.28758 21.3824 4.40501C21.6547 4.52243 21.9022 4.69453 22.1105 4.91148C22.3191 5.12818 22.4846 5.38552 22.5975 5.66878C22.7104 5.95205 22.7686 6.25567 22.7686 6.56231C22.7686 6.86895 22.7104 7.17257 22.5975 7.45584C22.4846 7.7391 22.3191 7.99644 22.1105 8.21314L22.0432 8.28314C21.7846 8.5581 21.6111 8.90733 21.5451 9.28579C21.4792 9.66425 21.5237 10.0546 21.673 10.4065V10.4998C21.8152 10.8449 22.0514 11.1392 22.3523 11.3464C22.6533 11.5537 23.006 11.665 23.3669 11.6665H23.5576C24.1527 11.6665 24.7234 11.9123 25.1441 12.3499C25.5649 12.7875 25.8012 13.381 25.8012 13.9998C25.8012 14.6186 25.5649 15.2121 25.1441 15.6497C24.7234 16.0873 24.1527 16.3331 23.5576 16.3331H23.4567C23.0957 16.3346 22.743 16.4459 22.4421 16.6532C22.1411 16.8604 21.905 17.1547 21.7628 17.4998Z" stroke="black" stroke-width="2.29333" stroke-linecap="round" stroke-linejoin="round"/>
</g>
<defs>
<clipPath id="clip0_75_663">
<rect width="26.4615" height="27.52" fill="white" transform="scale(1.01744)"/>
</clipPath>
</defs>
</svg>

