<svg width="28" height="28" viewBox="0 0 28 28" fill="none" xmlns="http://www.w3.org/2000/svg">
<g clip-path="url(#clip0_75_647)">
<path d="M10.5 25.6667C11.1443 25.6667 11.6667 25.1443 11.6667 24.5C11.6667 23.8557 11.1443 23.3333 10.5 23.3333C9.85567 23.3333 9.33333 23.8557 9.33333 24.5C9.33333 25.1443 9.85567 25.6667 10.5 25.6667Z" stroke="black" stroke-width="2.29333" stroke-linecap="round" stroke-linejoin="round"/>
<path d="M23.3333 25.6667C23.9776 25.6667 24.4999 25.1443 24.4999 24.5C24.4999 23.8557 23.9776 23.3333 23.3333 23.3333C22.6889 23.3333 22.1666 23.8557 22.1666 24.5C22.1666 25.1443 22.6889 25.6667 23.3333 25.6667Z" stroke="black" stroke-width="2.29333" stroke-linecap="round" stroke-linejoin="round"/>
<path d="M1.16673 1.16673H5.83339L8.96006 16.7884C9.06674 17.3255 9.35895 17.808 9.78553 18.1514C10.2121 18.4948 10.7459 18.6772 11.2934 18.6667H22.6334C23.1809 18.6772 23.7147 18.4948 24.1412 18.1514C24.5678 17.808 24.86 17.3255 24.9667 16.7884L26.8334 7.00006H7.00006" stroke="black" stroke-width="2.29333" stroke-linecap="round" stroke-linejoin="round"/>
</g>
<defs>
<clipPath id="clip0_75_647">
<rect width="27.52" height="27.52" fill="white" transform="scale(1.01744)"/>
</clipPath>
</defs>
</svg>

