<svg width="70" height="12" viewBox="0 0 70 12" fill="none" xmlns="http://www.w3.org/2000/svg">
<path d="M35.0002 0C31.6812 0 28.9657 2.61341 28.9657 5.80758C28.9657 9.00175 31.6812 11.6152 35.0002 11.6152C38.3191 11.6152 41.0347 9.00175 41.0347 5.80758C41.0347 2.61341 38.3191 0 35.0002 0Z" fill="#828282"/>
<path d="M4.8276 1.16165C2.17242 1.16165 0 3.25238 0 5.80771C0 8.36305 2.17242 10.4538 4.8276 10.4538C7.48279 10.4538 9.65521 8.36305 9.65521 5.80771C9.65521 3.25238 7.48279 1.16165 4.8276 1.16165Z" fill="#F2F2F2"/>
<path d="M19.3103 1.16165C16.6551 1.16165 14.4827 3.25238 14.4827 5.80771C14.4827 8.36305 16.6551 10.4538 19.3103 10.4538C21.9655 10.4538 24.1379 8.36305 24.1379 5.80771C24.1379 3.25238 21.9655 1.16165 19.3103 1.16165Z" fill="#F2F2F2"/>
<path d="M50.6898 1.16165C48.0346 1.16165 45.8622 3.25238 45.8622 5.80771C45.8622 8.36305 48.0346 10.4538 50.6898 10.4538C53.3449 10.4538 55.5174 8.36305 55.5174 5.80771C55.5174 3.25238 53.3449 1.16165 50.6898 1.16165Z" fill="#F2F2F2"/>
<path d="M65.1725 1.16165C62.5173 1.16165 60.3449 3.25238 60.3449 5.80771C60.3449 8.36305 62.5173 10.4538 65.1725 10.4538C67.8276 10.4538 70.0001 8.36305 70.0001 5.80771C70.0001 3.25238 67.8276 1.16165 65.1725 1.16165Z" fill="#F2F2F2"/>
</svg>

